{
  "asset": {
    "generator": "Khronos glTF Blender I/O v3.3.27",
    "version": "2.0"
  },
  "scene": 0,
  "scenes": [
    {
      "name": "Scene",
      "nodes": [
        1
      ]
    }
  ],
  "nodes": [
    {
      "mesh": 0,
      "name": "SM_Bld_House_02_Glass_01",
      "translation": [
        -128.46588134765625,
        382.34027099609375,
        -193.72581481933594
      ]
    },
    {
      "children": [
        0
      ],
      "mesh": 1,
      "name": "SM_Bld_House_02",
      "rotation": [
        0.5,
        0.5,
        -0.5,
        0.5
      ],
      "scale": [
        0.009999999776482582,
        0.009999999776482582,
        0.009999999776482582
      ],
      "translation": [
        -1.0245763063430786,
        0.6794960498809814,
        1.751546859741211
      ]
    }
  ],
  "materials": [
    {
      "doubleSided": true,
      "name": "PolygonApocalypse_Material_Glass_01",
      "pbrMetallicRoughness": {
        "baseColorTexture": {
          "index": 0
        },
        "metallicFactor": 0,
        "roughnessFactor": 0.5527864098548889
      }
    },
    {
      "doubleSided": true,
      "emissiveFactor": [
        1,
        1,
        1
      ],
      "emissiveTexture": {
        "index": 1
      },
      "name": "PolygonApocalypse_Material_01_A",
      "normalTexture": {
        "index": 2
      },
      "pbrMetallicRoughness": {
        "baseColorTexture": {
          "index": 3
        },
        "metallicFactor": 0,
        "roughnessFactor": 0.5527864098548889
      }
    }
  ],
  "meshes": [
    {
      "name": "Scene.155",
      "primitives": [
        {
          "attributes": {
            "POSITION": 0,
            "NORMAL": 1,
            "TEXCOORD_0": 2
          },
          "indices": 3,
          "material": 0
        }
      ]
    },
    {
      "name": "Scene.154",
      "primitives": [
        {
          "attributes": {
            "POSITION": 4,
            "NORMAL": 5,
            "TEXCOORD_0": 6
          },
          "indices": 7,
          "material": 1
        }
      ]
    }
  ],
  "textures": [
    {
      "sampler": 0,
      "source": 0
    },
    {
      "sampler": 0,
      "source": 1
    },
    {
      "sampler": 0,
      "source": 2
    },
    {
      "sampler": 0,
      "source": 0
    }
  ],
  "images": [
    {
      "name": "PolygonApocalypse_Texture_01_A",
      "uri": "house_img0.png"
    },
    {
      "name": "PolygonApocalypse_Emissive_01",
      "uri": "house_img1.png"
    },
    {
      "name": "PolygonApocalypse_Normal",
      "uri": "house_img2.png"
    }
  ],
  "accessors": [
    {
      "bufferView": 0,
      "componentType": 5126,
      "count": 126,
      "max": [
        292.10906982421875,
        1.34130859375,
        72.7845458984375
      ],
      "min": [
        -292.10906982421875,
        -1.34130859375,
        -72.7845458984375
      ],
      "type": "VEC3"
    },
    {
      "bufferView": 1,
      "componentType": 5126,
      "count": 126,
      "type": "VEC3"
    },
    {
      "bufferView": 2,
      "componentType": 5126,
      "count": 126,
      "type": "VEC2"
    },
    {
      "bufferView": 3,
      "componentType": 5123,
      "count": 138,
      "type": "SCALAR"
    },
    {
      "bufferView": 4,
      "componentType": 5126,
      "count": 13570,
      "max": [
        818.5618286132812,
        575.236328125,
        77.39851379394531
      ],
      "min": [
        -568.5609130859375,
        -475.2021179199219,
        -581.6490478515625
      ],
      "type": "VEC3"
    },
    {
      "bufferView": 5,
      "componentType": 5126,
      "count": 13570,
      "type": "VEC3"
    },
    {
      "bufferView": 6,
      "componentType": 5126,
      "count": 13570,
      "type": "VEC2"
    },
    {
      "bufferView": 7,
      "componentType": 5123,
      "count": 17730,
      "type": "SCALAR"
    }
  ],
  "bufferViews": [
    {
      "buffer": 0,
      "byteLength": 1512,
      "byteOffset": 0,
      "target": 34962
    },
    {
      "buffer": 0,
      "byteLength": 1512,
      "byteOffset": 1512,
      "target": 34962
    },
    {
      "buffer": 0,
      "byteLength": 1008,
      "byteOffset": 3024,
      "target": 34962
    },
    {
      "buffer": 0,
      "byteLength": 276,
      "byteOffset": 4032,
      "target": 34963
    },
    {
      "buffer": 0,
      "byteLength": 162840,
      "byteOffset": 4308,
      "target": 34962
    },
    {
      "buffer": 0,
      "byteLength": 162840,
      "byteOffset": 167148,
      "target": 34962
    },
    {
      "buffer": 0,
      "byteLength": 108560,
      "byteOffset": 329988,
      "target": 34962
    },
    {
      "buffer": 0,
      "byteLength": 35460,
      "byteOffset": 438548,
      "target": 34963
    }
  ],
  "samplers": [
    {
      "magFilter": 9729,
      "minFilter": 9987
    }
  ],
  "buffers": [
    {
      "uri": "house_data.bin",
      "byteLength": 474008
    }
  ]
}