{
  "asset": {
    "version": "2.0",
    "generator": "Unity 2020.3.12f1 glTFast 5.0.0"
  },
  "nodes": [
    {
      "name": "SM_Chr_Attach_Mags_03",
      "mesh": 0,
      "translation": [
        0.0230814256,
        -0.000658754259,
        -0.177900076
      ],
      "rotation": [
        0.6536515,
        -0.7543057,
        -0.0518383235,
        -0.03279375
      ]
    },
    {
      "name": "SM_Chr_Attach_Pouch_02",
      "mesh": 1,
      "translation": [
        0.11456158,
        0.014378272,
        0.183700085
      ],
      "rotation": [
        -0.0488673635,
        -0.04933796,
        -0.6053498,
        0.7929246
      ]
    },
    {
      "name": "Finger_04",
      "translation": [
        0.03003239,
        2.126771e-16,
        -1.110223e-18
      ],
      "rotation": [
        0.0166463628,
        -0.0965253562,
        0.169130117,
        0.98071444
      ]
    },
    {
      "name": "Finger_03",
      "children": [
        2
      ],
      "translation": [
        0.03513327,
        -3.00324e-16,
        3.77475832e-17
      ],
      "rotation": [
        -0.0182683058,
        0.000857736741,
        -0.0261166524,
        0.999491632
      ]
    },
    {
      "name": "Finger_02",
      "children": [
        3
      ],
      "translation": [
        0.0424881466,
        -1.0581813e-17,
        -8.326672e-18
      ],
      "rotation": [
        0.002623118,
        0.001845621,
        -0.107377872,
        0.9942131
      ]
    },
    {
      "name": "Finger_01",
      "children": [
        4
      ],
      "translation": [
        0.0998252556,
        -0.00115958939,
        -0.0328334
      ],
      "rotation": [
        -0.0020294867,
        0.159295365,
        -0.0580039658,
        0.985523462
      ]
    },
    {
      "name": "IndexFinger_04",
      "translation": [
        0.03779794,
        -1.92840537e-16,
        -9.992007e-18
      ],
      "rotation": [
        -0.00451982627,
        0.02803986,
        0.159068137,
        0.986859
      ]
    },
    {
      "name": "IndexFinger_03",
      "children": [
        6
      ],
      "translation": [
        0.03791188,
        -2.14619964e-16,
        -3.83026942e-17
      ],
      "rotation": [
        -0.00692333328,
        0.00101781893,
        -0.0261106342,
        0.999634564
      ]
    },
    {
      "name": "IndexFinger_02",
      "children": [
        7
      ],
      "translation": [
        0.0409363173,
        -1.52764088e-18,
        2.44249064e-17
      ],
      "rotation": [
        -0.00115301681,
        0.00331007387,
        -0.107202761,
        0.994231045
      ]
    },
    {
      "name": "IndexFinger_01",
      "children": [
        8
      ],
      "translation": [
        0.1039656,
        0.003987151,
        0.0267264955
      ],
      "rotation": [
        -0.0069192,
        0.159583062,
        -0.0573550425,
        0.985492647
      ]
    },
    {
      "name": "Thumb_03",
      "translation": [
        0.0566556975,
        2.91155982e-16,
        3.99680272e-17
      ],
      "rotation": [
        -0.0364034623,
        0.152034625,
        0.229995489,
        0.960553169
      ]
    },
    {
      "name": "Thumb_02",
      "children": [
        10
      ],
      "translation": [
        0.06370214,
        -6.1062266e-18,
        4.440892e-18
      ],
      "rotation": [
        -0.0406583361,
        0.07541385,
        -0.0207846984,
        0.996106267
      ]
    },
    {
      "name": "Thumb_01",
      "children": [
        11
      ],
      "translation": [
        0.0351404771,
        -0.0117069157,
        0.0450553931
      ],
      "rotation": [
        0.07677133,
        -0.08722947,
        -0.158625752,
        0.980477
      ]
    },
    {
      "name": "Hand_L",
      "children": [
        5,
        9,
        12
      ],
      "translation": [
        0.271145284,
        0,
        -0.000381364254
      ],
      "rotation": [
        -0.04237939,
        -0.125182465,
        -0.007455943,
        0.9912002
      ]
    },
    {
      "name": "Elbow_L",
      "children": [
        13
      ],
      "translation": [
        0.339474022,
        -0.00144907087,
        -0.001436264
      ],
      "rotation": [
        0.00007688234,
        -0.589470267,
        -0.001100148,
        0.8077894
      ]
    },
    {
      "name": "Shoulder_L",
      "children": [
        14
      ],
      "translation": [
        0.13197872,
        -4.857226e-19,
        -2.6645352e-17
      ],
      "rotation": [
        0.5145735,
        0.109604768,
        -0.3265168,
        0.785230935
      ]
    },
    {
      "name": "Clavicle_L",
      "children": [
        15
      ],
      "translation": [
        0.0580117255,
        -0.0419144779,
        -0.07447154
      ],
      "rotation": [
        -0.5550727,
        -0.5995407,
        0.423346341,
        -0.391437173
      ]
    },
    {
      "name": "Finger_04_1",
      "translation": [
        -0.03003113,
        0.0000011334713,
        3.591099e-7
      ],
      "rotation": [
        0.0166463628,
        -0.0965253562,
        0.169130117,
        0.98071444
      ]
    },
    {
      "name": "Finger_03_1",
      "children": [
        17
      ],
      "translation": [
        -0.0351332426,
        -1.99784807e-7,
        1.48536081e-8
      ],
      "rotation": [
        -0.0182739384,
        0.0004745225,
        -0.0139465015,
        0.999735653
      ]
    },
    {
      "name": "Finger_02_1",
      "children": [
        18
      ],
      "translation": [
        -0.042488087,
        2.65344141e-7,
        -1.97899315e-8
      ],
      "rotation": [
        0.002610266,
        0.00265537272,
        -0.144992381,
        0.9894258
      ]
    },
    {
      "name": "Finger_01_1",
      "children": [
        19
      ],
      "translation": [
        -0.099825,
        0.00116,
        0.0328333974
      ],
      "rotation": [
        0.00179463881,
        0.158856586,
        -0.03415902,
        0.986708939
      ]
    },
    {
      "name": "IndexFinger_04_1",
      "translation": [
        -0.0377933271,
        -0.00000526570875,
        -1.550738e-7
      ],
      "rotation": [
        -0.00451979833,
        0.02803974,
        0.159068108,
        0.986859
      ]
    },
    {
      "name": "IndexFinger_03_1",
      "children": [
        21
      ],
      "translation": [
        -0.0379121229,
        0.00000324998337,
        -4.545292e-8
      ],
      "rotation": [
        -0.006924303,
        0.000559737266,
        -0.0140654258,
        0.999877
      ]
    },
    {
      "name": "IndexFinger_02_1",
      "children": [
        22
      ],
      "translation": [
        -0.04093591,
        9.698692e-7,
        -4.956748e-8
      ],
      "rotation": [
        -0.001147977,
        0.00463733,
        -0.1449157,
        0.989432454
      ]
    },
    {
      "name": "IndexFinger_01_1",
      "children": [
        23
      ],
      "translation": [
        -0.103966,
        -0.00398999965,
        -0.0267265011
      ],
      "rotation": [
        -0.00307414914,
        0.159023464,
        -0.0333624445,
        0.9867062
      ]
    },
    {
      "name": "Thumb_03_1",
      "translation": [
        -0.0566550829,
        9.835501e-8,
        -2.0279542e-7
      ],
      "rotation": [
        -0.03640345,
        0.152034625,
        0.229995489,
        0.960553169
      ]
    },
    {
      "name": "Thumb_02_1",
      "children": [
        25
      ],
      "translation": [
        -0.06370146,
        -0.000007811824,
        4.36381157e-7
      ],
      "rotation": [
        -0.02545924,
        0.08960152,
        0.0097981235,
        0.995604038
      ]
    },
    {
      "name": "Thumb_01_1",
      "children": [
        26
      ],
      "translation": [
        -0.03514,
        0.01171,
        -0.0450553969
      ],
      "rotation": [
        0.110934786,
        -0.0133707142,
        -0.1130479,
        0.9872866
      ]
    },
    {
      "name": "Hand_R",
      "children": [
        20,
        24,
        27
      ],
      "translation": [
        -0.2711449,
        -2.842171e-16,
        0.000381360878
      ],
      "rotation": [
        -0.05147767,
        -0.1728596,
        0.2005676,
        0.9629342
      ]
    },
    {
      "name": "Elbow_R",
      "children": [
        28
      ],
      "translation": [
        -0.3394746,
        0.00144758634,
        0.00143626356
      ],
      "rotation": [
        -0.0003929196,
        -0.7210348,
        -0.0007137704,
        0.692898333
      ]
    },
    {
      "name": "Shoulder_R",
      "children": [
        29
      ],
      "translation": [
        -0.1319786,
        0.0000064733913,
        4.73534243e-8
      ],
      "rotation": [
        0.0362370946,
        -0.3343636,
        -0.427677661,
        0.839035
      ]
    },
    {
      "name": "Clavicle_R",
      "children": [
        30
      ],
      "translation": [
        0.0580153354,
        -0.04191418,
        0.0744715
      ],
      "rotation": [
        0.6189865,
        -0.559886158,
        -0.377401,
        -0.4011879
      ]
    },
    {
      "name": "Eyebrows",
      "translation": [
        -2.52435484e-31,
        0.1276692,
        0.122722149
      ],
      "rotation": [
        1.165559e-11,
        3.65993639e-13,
        -2.42920545e-11,
        1
      ]
    },
    {
      "name": "Eyes",
      "translation": [
        2.05103828e-31,
        0.09447606,
        0.122722149
      ],
      "rotation": [
        1.165559e-11,
        3.65993639e-13,
        -2.42920545e-11,
        1
      ]
    },
    {
      "name": "Jaw",
      "translation": [
        0.0000459197981,
        0.0624751076,
        0.02164003
      ],
      "rotation": [
        1.165559e-11,
        3.65993639e-13,
        -2.42920545e-11,
        1
      ]
    },
    {
      "name": "SM_Chr_Attach_Cool_Male_Hair_01",
      "mesh": 2
    },
    {
      "name": "Head",
      "children": [
        32,
        33,
        34,
        35
      ],
      "translation": [
        0.12164434,
        -1.50990333e-16,
        -5.05917559e-17
      ],
      "rotation": [
        0.447256118,
        0.5289152,
        -0.4749359,
        0.54281354
      ]
    },
    {
      "name": "Neck",
      "children": [
        36
      ],
      "translation": [
        0.111889675,
        -6.661338e-18,
        -4.62441277e-17
      ],
      "rotation": [
        -0.0237105116,
        0.0248721968,
        -0.0804561749,
        0.996165633
      ]
    },
    {
      "name": "Spine_03",
      "children": [
        16,
        31,
        37
      ],
      "translation": [
        0.179037243,
        2.22044575e-17,
        7.509725e-17
      ],
      "rotation": [
        0.996458232,
        0.08195216,
        -0.0107422713,
        -0.0154780047
      ]
    },
    {
      "name": "Spine_02",
      "children": [
        38
      ],
      "translation": [
        0.181511685,
        1.55431224e-17,
        -7.101073e-17
      ],
      "rotation": [
        0.9916578,
        0.127421632,
        0.0120415995,
        -0.0152843129
      ]
    },
    {
      "name": "Spine_01",
      "children": [
        39
      ],
      "translation": [
        0.103932649,
        1.3322676e-17,
        4.61553679e-17
      ],
      "rotation": [
        0.9681545,
        0.215813562,
        -0.009388517,
        -0.1265436
      ]
    },
    {
      "name": "Toes_L",
      "translation": [
        -0.0729575,
        2.6645352e-17,
        1.7763568e-17
      ],
      "rotation": [
        -2.73745138e-13,
        0.7071068,
        2.73745138e-13,
        0.7071068
      ]
    },
    {
      "name": "Ball_L",
      "children": [
        41
      ],
      "translation": [
        -0.112840325,
        -1.684957e-8,
        -7.105427e-17
      ],
      "rotation": [
        -1.22782637e-8,
        -4.34854073e-8,
        0.270015955,
        0.9628559
      ]
    },
    {
      "name": "Ankle_L",
      "children": [
        42
      ],
      "translation": [
        -0.377123266,
        1.31694932e-7,
        -8.411038e-7
      ],
      "rotation": [
        0.8195793,
        -0.560588658,
        -0.0941383839,
        -0.07188989
      ]
    },
    {
      "name": "LowerLeg_L",
      "children": [
        43
      ],
      "translation": [
        -0.3993092,
        -3.80502627e-7,
        1.46549432e-16
      ],
      "rotation": [
        0.305127025,
        -0.658672631,
        0.621052742,
        0.2955357
      ]
    },
    {
      "name": "UpperLeg_L",
      "children": [
        44
      ],
      "translation": [
        -0.04115778,
        -0.026920747,
        0.0989671052
      ],
      "rotation": [
        -0.640971959,
        0.232438967,
        -0.1438292,
        0.717244864
      ]
    },
    {
      "name": "Toes_R",
      "translation": [
        0.07295756,
        2.040087e-18,
        3.40871246e-18
      ],
      "rotation": [
        1.90088424e-14,
        0.7071068,
        -1.90088424e-14,
        0.7071068
      ]
    },
    {
      "name": "Ball_R",
      "children": [
        46
      ],
      "translation": [
        0.112840354,
        -1.1546319e-16,
        -2.113351e-17
      ],
      "rotation": [
        -1.89052187e-7,
        7.577959e-8,
        0.5195389,
        0.8544469
      ]
    },
    {
      "name": "Ankle_R",
      "children": [
        47
      ],
      "translation": [
        0.377123475,
        -7.771561e-17,
        1.68198787e-16
      ],
      "rotation": [
        0.832305431,
        -0.5482624,
        -0.07992382,
        0.0169744678
      ]
    },
    {
      "name": "LowerLeg_R",
      "children": [
        48
      ],
      "translation": [
        0.399309039,
        -6.883383e-17,
        -5.33421447e-17
      ],
      "rotation": [
        0.5585696,
        -0.176760018,
        0.145942733,
        0.7971553
      ]
    },
    {
      "name": "UpperLeg_R",
      "children": [
        49
      ],
      "translation": [
        -0.0411576852,
        -0.0269206967,
        -0.09896705
      ],
      "rotation": [
        -0.09116671,
        0.6763749,
        -0.728132665,
        0.06347037
      ]
    },
    {
      "name": "Hips",
      "children": [
        0,
        1,
        40,
        45,
        50
      ],
      "translation": [
        0,
        0.8762761,
        0
      ],
      "rotation": [
        0.461136639,
        0.5360532,
        0.461136639,
        0.5360532
      ]
    },
    {
      "name": "Root",
      "children": [
        51
      ]
    },
    {
      "name": "SM_Chr_Cool_Male_01_1",
      "mesh": 3,
      "translation": [
        15.6985559,
        0,
        0
      ]
    },
    {
      "name": "Running (1)",
      "children": [
        52,
        53
      ]
    }
  ],
  "extensionsRequired": [
    "KHR_texture_transform"
  ],
  "extensionsUsed": [
    "KHR_texture_transform"
  ],
  "buffers": [
    {
      "uri": "Running-boy_data.bin",
      "byteLength": 685848
    }
  ],
  "bufferViews": [
    {
      "buffer": 0,
      "byteLength": 2712,
      "byteOffset": 0
    },
    {
      "buffer": 0,
      "byteLength": 38016,
      "byteOffset": 2712,
      "byteStride": 48
    },
    {
      "buffer": 0,
      "byteLength": 1908,
      "byteOffset": 40728
    },
    {
      "buffer": 0,
      "byteLength": 25344,
      "byteOffset": 42636,
      "byteStride": 48
    },
    {
      "buffer": 0,
      "byteLength": 1652,
      "byteOffset": 67980
    },
    {
      "buffer": 0,
      "byteLength": 27984,
      "byteOffset": 69632,
      "byteStride": 48
    },
    {
      "buffer": 0,
      "byteLength": 18960,
      "byteOffset": 97616
    },
    {
      "buffer": 0,
      "byteLength": 258760,
      "byteOffset": 116576,
      "byteStride": 40
    },
    {
      "buffer": 0,
      "byteLength": 103504,
      "byteOffset": 375336,
      "byteStride": 16
    },
    {
      "buffer": 0,
      "byteLength": 207008,
      "byteOffset": 478840,
      "byteStride": 32
    }
  ],
  "accessors": [
    {
      "bufferView": 1,
      "componentType": 5126,
      "count": 792,
      "type": "VEC3",
      "max": [
        0.0770453662,
        0.165480435,
        0.06264048
      ],
      "min": [
        -0.07704528,
        -0.165480375,
        -0.0118642524
      ]
    },
    {
      "bufferView": 1,
      "componentType": 5126,
      "count": 792,
      "type": "VEC3",
      "byteOffset": 12
    },
    {
      "bufferView": 1,
      "componentType": 5126,
      "count": 792,
      "type": "VEC4",
      "byteOffset": 24
    },
    {
      "bufferView": 1,
      "componentType": 5126,
      "count": 792,
      "type": "VEC2",
      "byteOffset": 40
    },
    {
      "bufferView": 0,
      "componentType": 5123,
      "count": 1356,
      "type": "SCALAR"
    },
    {
      "bufferView": 3,
      "componentType": 5126,
      "count": 528,
      "type": "VEC3",
      "max": [
        0.06886807,
        0.0119673014,
        0.06601686
      ],
      "min": [
        -0.06886834,
        -0.1808551,
        0
      ]
    },
    {
      "bufferView": 3,
      "componentType": 5126,
      "count": 528,
      "type": "VEC3",
      "byteOffset": 12
    },
    {
      "bufferView": 3,
      "componentType": 5126,
      "count": 528,
      "type": "VEC4",
      "byteOffset": 24
    },
    {
      "bufferView": 3,
      "componentType": 5126,
      "count": 528,
      "type": "VEC2",
      "byteOffset": 40
    },
    {
      "bufferView": 2,
      "componentType": 5123,
      "count": 954,
      "type": "SCALAR"
    },
    {
      "bufferView": 5,
      "componentType": 5126,
      "count": 583,
      "type": "VEC3",
      "max": [
        0.131954372,
        0.2795752,
        0.172782421
      ],
      "min": [
        -0.138356924,
        -0.01960069,
        -0.1338824
      ]
    },
    {
      "bufferView": 5,
      "componentType": 5126,
      "count": 583,
      "type": "VEC3",
      "byteOffset": 12
    },
    {
      "bufferView": 5,
      "componentType": 5126,
      "count": 583,
      "type": "VEC4",
      "byteOffset": 24
    },
    {
      "bufferView": 5,
      "componentType": 5126,
      "count": 583,
      "type": "VEC2",
      "byteOffset": 40
    },
    {
      "bufferView": 4,
      "componentType": 5123,
      "count": 825,
      "type": "SCALAR"
    },
    {
      "bufferView": 7,
      "componentType": 5126,
      "count": 6469,
      "type": "VEC3",
      "max": [
        -14.6747971,
        1.78805113,
        0.149729341
      ],
      "min": [
        -16.7223129,
        -0.00315129757,
        -0.184775382
      ]
    },
    {
      "bufferView": 7,
      "componentType": 5126,
      "count": 6469,
      "type": "VEC3",
      "byteOffset": 12
    },
    {
      "bufferView": 7,
      "componentType": 5126,
      "count": 6469,
      "type": "VEC4",
      "byteOffset": 24
    },
    {
      "bufferView": 8,
      "componentType": 5126,
      "count": 6469,
      "type": "VEC2"
    },
    {
      "bufferView": 8,
      "componentType": 5126,
      "count": 6469,
      "type": "VEC2",
      "byteOffset": 8
    },
    {
      "bufferView": 9,
      "componentType": 5126,
      "count": 6469,
      "type": "VEC4"
    },
    {
      "bufferView": 9,
      "componentType": 5125,
      "count": 6469,
      "type": "VEC4",
      "byteOffset": 16
    },
    {
      "bufferView": 6,
      "componentType": 5123,
      "count": 9480,
      "type": "SCALAR"
    }
  ],
  "images": [
    {
      "name": "PolygonApocalypse_Emissive_01.jpg",
      "uri": "Running-boy_img0.jpg"
    },
    {
      "name": "PolygonApocalypse_Normal.png",
      "uri": "Running-boy_img1.png"
    },
    {
      "name": "PolygonApocalypse_Texture_01_A.png",
      "uri": "Running-boy_img2.png"
    },
    {
      "name": "PolygonApocalypse_Texture_03_C.jpg",
      "uri": "Running-boy_img3.jpg"
    }
  ],
  "materials": [
    {
      "name": "PolygonApocalypse_Material_01_A",
      "pbrMetallicRoughness": {
        "metallicFactor": 0,
        "baseColorTexture": {
          "index": 2,
          "extensions": {
            "KHR_texture_transform": {
              "offset": [
                0,
                1
              ],
              "scale": [
                1,
                -1
              ]
            }
          }
        }
      },
      "normalTexture": {
        "index": 1,
        "extensions": {
          "KHR_texture_transform": {
            "offset": [
              0,
              1
            ],
            "scale": [
              1,
              -1
            ]
          }
        }
      },
      "emissiveTexture": {
        "index": 0,
        "extensions": {
          "KHR_texture_transform": {
            "offset": [
              0,
              1
            ],
            "scale": [
              1,
              -1
            ]
          }
        }
      },
      "emissiveFactor": [
        1,
        1,
        1
      ]
    },
    {
      "name": "PolygonApocalypse_Material_03_C",
      "pbrMetallicRoughness": {
        "metallicFactor": 0,
        "baseColorTexture": {
          "index": 3,
          "extensions": {
            "KHR_texture_transform": {
              "offset": [
                0,
                1
              ],
              "scale": [
                1,
                -1
              ]
            }
          }
        }
      },
      "normalTexture": {
        "index": 1,
        "extensions": {
          "KHR_texture_transform": {
            "offset": [
              0,
              1
            ],
            "scale": [
              1,
              -1
            ]
          }
        }
      }
    }
  ],
  "meshes": [
    {
      "name": "SM_Chr_Attach_Mags_03",
      "primitives": [
        {
          "attributes": {
            "POSITION": 0,
            "NORMAL": 1,
            "TANGENT": 2,
            "TEXCOORD_0": 3
          },
          "indices": 4,
          "material": 0
        }
      ]
    },
    {
      "name": "SM_Chr_Attach_Pouch_02",
      "primitives": [
        {
          "attributes": {
            "POSITION": 5,
            "NORMAL": 6,
            "TANGENT": 7,
            "TEXCOORD_0": 8
          },
          "indices": 9,
          "material": 0
        }
      ]
    },
    {
      "name": "SM_Chr_Attach_Cool_Male_Hair_01",
      "primitives": [
        {
          "attributes": {
            "POSITION": 10,
            "NORMAL": 11,
            "TANGENT": 12,
            "TEXCOORD_0": 13
          },
          "indices": 14,
          "material": 0
        }
      ]
    },
    {
      "name": "SM_Chr_Cool_Male_01_1",
      "primitives": [
        {
          "attributes": {
            "POSITION": 15,
            "NORMAL": 16,
            "TANGENT": 17,
            "TEXCOORD_0": 18,
            "TEXCOORD_1": 19,
            "JOINTS_0": 21,
            "WEIGHTS_0": 20
          },
          "indices": 22,
          "material": 1
        }
      ]
    }
  ],
  "scene": 0,
  "scenes": [
    {
      "name": "Running (1)",
      "nodes": [
        54
      ]
    }
  ],
  "textures": [
    {
      "source": 0
    },
    {
      "source": 1
    },
    {
      "source": 2
    },
    {
      "source": 3
    }
  ]
}