{"asset":{"version":"2.0","generator":"Unity 2020.3.12f1 glTFast 5.0.0"},"nodes":[{"name":"Finger_04","translation":[0.0300323926,2.126771E-16,-1.110223E-18],"rotation":[0.01664637,-0.0965253338,0.169130057,0.98071444]},{"name":"Finger_03","children":[0],"translation":[0.0351332724,-3.00324E-16,3.77475832E-17],"rotation":[-0.0181492269,0.07147895,-0.09251083,0.9929769]},{"name":"Finger_02","children":[1],"translation":[0.0424881466,-1.0581813E-17,-8.326672E-18],"rotation":[0.00263727061,-0.0194920264,-0.02126933,0.999580264]},{"name":"Finger_01","children":[2],"translation":[0.0998252556,-0.00115958939,-0.0328334],"rotation":[-0.00248643151,0.0438797474,-0.056519255,0.9974337]},{"name":"IndexFinger_04","translation":[0.03779794,-1.92840537E-16,-9.992007E-18],"rotation":[-0.00451964838,0.0280399285,0.159068018,0.986859]},{"name":"IndexFinger_03","children":[4],"translation":[0.03791188,-2.14619977E-16,-3.83026942E-17],"rotation":[-0.006912195,0.0257174131,-0.0570024066,0.9980188]},{"name":"IndexFinger_02","children":[5],"translation":[0.0409363173,-1.52764088E-18,2.44249064E-17],"rotation":[-0.001153992,0.0107416362,-0.09832994,0.995095253]},{"name":"IndexFinger_01","children":[6],"translation":[0.10396561,0.003987151,0.0267264955],"rotation":[0.000280495326,-0.0657944456,-0.004253931,0.997824132]},{"name":"Thumb_03","translation":[0.0566556975,2.91155982E-16,3.99680272E-17],"rotation":[-0.0364032574,0.15203467,0.22999534,0.9605532]},{"name":"Thumb_02","children":[8],"translation":[0.06370214,-6.1062266E-18,4.440892E-18],"rotation":[-0.0399420261,0.1178403,-0.141635776,0.982068062]},{"name":"Thumb_01","children":[9],"translation":[0.0351404771,-0.0117069157,0.0450553931],"rotation":[0.0254806429,-0.276842743,-0.08803956,0.9565343]},{"name":"Hand_L","children":[3,7,10],"translation":[0.271145284,0,-0.000381364254],"rotation":[-2.4156162E-17,0.035830766,-1.66792529E-15,0.9993579]},{"name":"Elbow_L","children":[11],"translation":[0.339474022,-0.00144907087,-0.00143626414],"rotation":[0.00168383261,-0.0407495946,0.0412518755,0.99831605]},{"name":"Shoulder_L","children":[12],"translation":[0.13197872,-4.857226E-19,-2.6645352E-17],"rotation":[0.0113281235,-0.236859962,-0.03380652,0.9708894]},{"name":"Clavicle_L","children":[13],"translation":[0.0580117255,-0.0419144779,-0.07447154],"rotation":[-0.5785476,-0.632485747,0.352513462,-0.375471354]},{"name":"Finger_04 1","translation":[-0.03003113,1.1334713E-06,3.591099E-07],"rotation":[0.01664637,-0.0965253338,0.169130057,0.98071444]},{"name":"Finger_03 1","children":[15],"translation":[-0.0351332426,-1.99784807E-07,1.48536081E-08],"rotation":[-0.0181492269,0.07147895,-0.09251083,0.9929769]},{"name":"Finger_02 1","children":[16],"translation":[-0.04248809,2.65344141E-07,-1.97899315E-08],"rotation":[0.00263727061,-0.0194920264,-0.02126933,0.999580264]},{"name":"Finger_01 1","children":[17],"translation":[-0.099825,0.00116,0.0328333974],"rotation":[-0.00248643151,0.0438797474,-0.056519255,0.9974337]},{"name":"IndexFinger_04 1","translation":[-0.0377933271,-5.26570875E-06,-1.550738E-07],"rotation":[-0.00451964838,0.0280399285,0.159068018,0.986859]},{"name":"IndexFinger_03 1","children":[19],"translation":[-0.0379121266,3.24998337E-06,-4.545292E-08],"rotation":[-0.006912195,0.0257174131,-0.0570024066,0.9980188]},{"name":"IndexFinger_02 1","children":[20],"translation":[-0.04093591,9.698692E-07,-4.956748E-08],"rotation":[-0.001153992,0.0107416362,-0.09832994,0.995095253]},{"name":"IndexFinger_01 1","children":[21],"translation":[-0.103966,-0.00398999965,-0.0267265011],"rotation":[0.000280495326,-0.0657944456,-0.004253931,0.997824132]},{"name":"Thumb_03 1","translation":[-0.0566550829,9.835502E-08,-2.0279542E-07],"rotation":[-0.0364032574,0.15203467,0.22999534,0.9605532]},{"name":"Thumb_02 1","children":[23],"translation":[-0.06370146,-7.811825E-06,4.36381157E-07],"rotation":[-0.0399420261,0.1178403,-0.141635776,0.982068062]},{"name":"Thumb_01 1","children":[24],"translation":[-0.03514,0.01171,-0.0450553969],"rotation":[0.0254806429,-0.276842743,-0.08803956,0.9565343]},{"name":"Hand_R","children":[18,22,25],"translation":[-0.2711449,-2.842171E-16,0.000381360878],"rotation":[-9.685131E-17,0.035830766,1.06124885E-15,0.9993579]},{"name":"Elbow_R","children":[26],"translation":[-0.3394746,0.00144758634,0.00143626356],"rotation":[0.00168383261,-0.0407495946,0.0412518755,0.99831605]},{"name":"Shoulder_R","children":[27],"translation":[-0.1319786,6.4733913E-06,4.73534243E-08],"rotation":[0.0113281235,-0.236859962,-0.03380652,0.9708894]},{"name":"Clavicle_R","children":[28],"translation":[0.05801534,-0.04191418,0.0744715],"rotation":[0.632485747,-0.5785476,-0.375471354,-0.352513462]},{"name":"Eyebrows","translation":[-2.52435484E-31,0.1276692,0.122722149]},{"name":"Eyes","translation":[2.05103828E-31,0.09447606,0.122722149]},{"name":"Jaw","translation":[4.59197981E-05,0.06247511,0.02164003]},{"name":"SM_Chr_Attach_Cool_Male_Hair_01","mesh":0},{"name":"Head","children":[30,31,32,33],"translation":[0.121644348,-1.50990333E-16,-5.059176E-17],"rotation":[0.458571,0.5382496,-0.458571,0.5382496]},{"name":"Neck","children":[34],"translation":[0.111889675,-6.661338E-18,-4.62441277E-17],"rotation":[7.053966E-17,-1.30403846E-15,-0.04173335,0.9991288]},{"name":"Spine_03","children":[14,29,35],"translation":[0.179037243,2.22044592E-17,7.509725E-17],"rotation":[0.9938103,0.111090317,7.955034E-16,-1.50536839E-16]},{"name":"Spine_02","children":[36],"translation":[0.181511685,1.55431224E-17,-7.101073E-17],"rotation":[0.99518615,0.098002784,6.0366487E-16,-1.20975535E-16]},{"name":"Spine_01","children":[37],"translation":[0.103932649,1.3322676E-17,4.61553679E-17],"rotation":[0.9950197,0.09967895,-1.29864381E-15,6.855654E-17]},{"name":"Toes_L","translation":[-0.0729575,2.6645352E-17,1.7763568E-17],"rotation":[-2.73765277E-13,0.7071068,2.73765277E-13,0.7071068]},{"name":"Ball_L","children":[39],"translation":[-0.112840325,-1.684957E-08,-7.105427E-17],"rotation":[3.39839126E-15,-4.813244E-15,0.2700158,0.962855935]},{"name":"Ankle_L","children":[40],"translation":[-0.377123266,1.31694947E-07,-8.411038E-07],"rotation":[0.857670069,-0.507213,-0.0397527069,-0.0745436]},{"name":"LowerLeg_L","children":[41],"translation":[-0.3993092,-3.80502627E-07,1.46549432E-16],"rotation":[0.644377768,-0.0244627278,0.00473771,0.7643013]},{"name":"UpperLeg_L","children":[42],"translation":[-0.0411577821,-0.0269207489,0.0989671052],"rotation":[-0.7058717,-0.04177525,0.0641593561,0.70419]},{"name":"Toes_R","translation":[0.07295756,2.040087E-18,3.40871246E-18],"rotation":[1.90134536E-14,0.7071068,-1.90134536E-14,0.7071068]},{"name":"Ball_R","children":[44],"translation":[0.112840354,-1.1546319E-16,-2.113351E-17],"rotation":[-8.012619E-16,-1.24803338E-15,0.2700158,0.962855935]},{"name":"Ankle_R","children":[45],"translation":[0.3771235,-7.771561E-17,1.68198787E-16],"rotation":[0.857670069,-0.507213,-0.0397527069,-0.0745436]},{"name":"LowerLeg_R","children":[46],"translation":[0.399309039,-6.883383E-17,-5.33421447E-17],"rotation":[0.644377768,-0.0244627278,0.00473771,0.7643013]},{"name":"UpperLeg_R","children":[47],"translation":[-0.0411576852,-0.0269206967,-0.09896705],"rotation":[0.04177524,-0.7058717,0.70419,-0.06415935]},{"name":"SM_Chr_Attach_Pouch_02","mesh":1,"translation":[0.114561588,0.014378272,0.183700085],"rotation":[-0.0488673151,-0.0493379235,-0.6053498,0.792924643]},{"name":"SM_Chr_Attach_Mags_03","mesh":2,"translation":[0.0230814274,-0.000658754259,-0.177900076],"rotation":[0.6536515,-0.7543057,-0.05183833,-0.0327936858]},{"name":"Hips","children":[38,43,48,49,50],"translation":[0,0.8762761,0],"rotation":[0.461136639,0.5360532,0.461136639,0.5360532]},{"name":"Root","children":[51]},{"name":"SM_Chr_Cool_Male_01","mesh":3,"translation":[15.6985559,0,0]},{"name":"SM_Chr_Cool_Male_01","children":[52,53],"translation":[-6.969,0.053,-24.148]}],"extensionsRequired":["KHR_texture_transform"],"extensionsUsed":["KHR_texture_transform"],"buffers":[{"uri":"SM_Chr_Cool_Male_01.bin","byteLength":683912}],"bufferViews":[{"buffer":0,"byteLength":1650},{"buffer":0,"byteLength":27984,"byteOffset":1652,"byteStride":48},{"buffer":0,"byteLength":1908,"byteOffset":29636},{"buffer":0,"byteLength":25344,"byteOffset":31544,"byteStride":48},{"buffer":0,"byteLength":2712,"byteOffset":56888},{"buffer":0,"byteLength":38016,"byteOffset":59600,"byteStride":48},{"buffer":0,"byteLength":18960,"byteOffset":97616},{"buffer":0,"byteLength":257880,"byteOffset":116576,"byteStride":40},{"buffer":0,"byteLength":103152,"byteOffset":374456,"byteStride":16},{"buffer":0,"byteLength":206304,"byteOffset":477608,"byteStride":32}],"accessors":[{"bufferView":1,"componentType":5126,"count":583,"type":"VEC3","max":[0.131954372,0.2795752,0.172782421],"min":[-0.138356924,-0.01960069,-0.1338824]},{"bufferView":1,"componentType":5126,"count":583,"type":"VEC3","byteOffset":12},{"bufferView":1,"componentType":5126,"count":583,"type":"VEC4","byteOffset":24},{"bufferView":1,"componentType":5126,"count":583,"type":"VEC2","byteOffset":40},{"bufferView":0,"componentType":5123,"count":825,"type":"SCALAR"},{"bufferView":3,"componentType":5126,"count":528,"type":"VEC3","max":[0.06886807,0.0119673014,0.06601686],"min":[-0.06886834,-0.1808551,0]},{"bufferView":3,"componentType":5126,"count":528,"type":"VEC3","byteOffset":12},{"bufferView":3,"componentType":5126,"count":528,"type":"VEC4","byteOffset":24},{"bufferView":3,"componentType":5126,"count":528,"type":"VEC2","byteOffset":40},{"bufferView":2,"componentType":5123,"count":954,"type":"SCALAR"},{"bufferView":5,"componentType":5126,"count":792,"type":"VEC3","max":[0.0770453662,0.165480435,0.06264049],"min":[-0.07704528,-0.165480375,-0.0118642524]},{"bufferView":5,"componentType":5126,"count":792,"type":"VEC3","byteOffset":12},{"bufferView":5,"componentType":5126,"count":792,"type":"VEC4","byteOffset":24},{"bufferView":5,"componentType":5126,"count":792,"type":"VEC2","byteOffset":40},{"bufferView":4,"componentType":5123,"count":1356,"type":"SCALAR"},{"bufferView":7,"componentType":5126,"count":6447,"type":"VEC3","max":[-14.6747971,1.78805113,0.149729341],"min":[-16.7223129,-0.00315129757,-0.184775382]},{"bufferView":7,"componentType":5126,"count":6447,"type":"VEC3","byteOffset":12},{"bufferView":7,"componentType":5126,"count":6447,"type":"VEC4","byteOffset":24},{"bufferView":8,"componentType":5126,"count":6447,"type":"VEC2"},{"bufferView":8,"componentType":5126,"count":6447,"type":"VEC2","byteOffset":8},{"bufferView":9,"componentType":5126,"count":6447,"type":"VEC4"},{"bufferView":9,"componentType":5125,"count":6447,"type":"VEC4","byteOffset":16},{"bufferView":6,"componentType":5123,"count":9480,"type":"SCALAR"}],"images":[{"name":"PolygonApocalypse_Normal.png","uri":"PolygonApocalypse_Normal.png","mimeType":"image/png"},{"name":"PolygonApocalypse_Texture_01_A.png","uri":"PolygonApocalypse_Texture_01_A.png","mimeType":"image/png"},{"name":"PolygonApocalypse_Texture_03_C.jpg","uri":"PolygonApocalypse_Texture_03_C.jpg","mimeType":"image/jpeg"}],"materials":[{"name":"PolygonApocalypse_Material_01_A","pbrMetallicRoughness":{"metallicFactor":0,"roughnessFactor":0.8,"baseColorTexture":{"index":1,"extensions":{"KHR_texture_transform":{"offset":[0,1],"scale":[1,-1]}}}},"normalTexture":{"index":0,"extensions":{"KHR_texture_transform":{"offset":[0,1],"scale":[1,-1]}}}},{"name":"PolygonApocalypse_Material_03_C","pbrMetallicRoughness":{"metallicFactor":0,"roughnessFactor":0.8,"baseColorTexture":{"index":2,"extensions":{"KHR_texture_transform":{"offset":[0,1],"scale":[1,-1]}}}},"normalTexture":{"index":0,"extensions":{"KHR_texture_transform":{"offset":[0,1],"scale":[1,-1]}}}}],"meshes":[{"name":"SM_Chr_Attach_Cool_Male_Hair_01","primitives":[{"attributes":{"POSITION":0,"NORMAL":1,"TANGENT":2,"TEXCOORD_0":3},"indices":4,"material":0}]},{"name":"SM_Chr_Attach_Pouch_02","primitives":[{"attributes":{"POSITION":5,"NORMAL":6,"TANGENT":7,"TEXCOORD_0":8},"indices":9,"material":0}]},{"name":"SM_Chr_Attach_Mags_03","primitives":[{"attributes":{"POSITION":10,"NORMAL":11,"TANGENT":12,"TEXCOORD_0":13},"indices":14,"material":0}]},{"name":"SM_Chr_Cool_Male_01","primitives":[{"attributes":{"POSITION":15,"NORMAL":16,"TANGENT":17,"TEXCOORD_0":18,"TEXCOORD_1":19,"JOINTS_0":21,"WEIGHTS_0":20},"indices":22,"material":1}]}],"scene":0,"scenes":[{"name":"SM_Chr_Cool_Male_01","nodes":[54]}],"textures":[{"source":0},{"source":1},{"source":2}]}